{"title":"The.Divide.2011.Limited.BRRip.XViD.DTRG","uid":7139376,"size":1708028770,"categoryP":"video","categoryS":"hd___movies","magnet":"?xt=urn:btih:9687f1b7b58e4eb6c55e900be0533cd1d82c747f&amp;dn=The.Divide.2011.Limited.BRRip.XViD.DTRG&amp;tr=udp%3A%2F%2Ftracker.openbittorrent.com%3A80&amp;tr=udp%3A%2F%2Fopen.demonii.com%3A1337&amp;tr=udp%3A%2F%2Ftracker.coppersurfer.tk%3A6969&amp;tr=udp%3A%2F%2Fexodus.desync.com%3A6969","seeders":0,"leechers":1,"uploader":"BLOVES","files":3,"time":1332952934,"description":"Format : AVI\nFormat/Info : Audio Video Interleave\nFile size : 1.58 GiB\nDuration : 2h 2mn\nOverall bit rate : 1 847 Kbps\nWriting application : VirtualDubMod 1.5.10.2 (build 2540/release)\nWriting library : VirtualDubMod build 2540/release\n\nVideo\nID : 0\nFormat : MPEG-4 Visual\nFormat profile : Advanced Simple@L5\nFormat settings, BVOP : 2\nFormat settings, QPel : No\nFormat settings, GMC : No warppoints\nFormat settings, Matrix : Default (H.263)\nMuxing mode : Packed bitstream\nCodec ID : XVID\nCodec ID/Hint : XviD\nDuration : 2h 2mn\nBit rate : 1 453 Kbps\nWidth : 720 pixels\nHeight : 304 pixels\nDisplay aspect ratio : 2.35:1\nFrame rate : 23.976 fps\nColor space : YUV\nChroma subsampling : 4:2:0\nBit depth : 8 bits\nScan type : Progressive\nCompression mode : Lossy\nBits/(Pixel*Frame) : 0.277\nStream size : 1.24 GiB (79%)\nWriting library : XviD 64\n\nAudio\nID : 1\nFormat : AC-3\nFormat/Info : Audio Coding 3\nMode extension : CM (complete main)\nCodec ID : 2000\nDuration : 2h 2mn\nBit rate mode : Constant\nBit rate : 384 Kbps\nChannel(s) : 6 channels\nChannel positions : Front: L C R, Side: L R, LFE\nSampling rate : 48.0 KHz\nBit depth : 16 bits\nCompression mode : Lossy\nStream size : 336 MiB (21%)\nAlignment : Split accross interleaves\nInterleave, duration : 42 ms (1.00 video frame)\nInterleave, preload duration : 500 ms\n\n\n\n\n\n\n\n\n &lt;a href=&quot;\nhttp://www.imdb.com/title/tt1535616/&quot; rel=&quot;nofollow&quot; target=&quot;_NEW&quot;&gt;\nhttp://www.imdb.com/title/tt1535616/&lt;/a&gt;\n\n\n\n\n\n\nRatings: 6.9/10 from 655 users Metascore: 28/100 \nReviews: 8 user | 66 critic | 17 from Metacritic.com\n\nSurvivors of a nuclear attack are grouped together for days in the basement of their apartment building, where fear and dwindling supplies wear away at their dynamic.\n\nDirector:\nXavier Gens\nWriters:\nKarl Mueller, Eron Sheean\nStars:\nLauren German, Michael Biehn and Milo Ventimiglia\n\n\n\n\n\n\n\n\nSource Used\n\n\n\n720p SPARKS ................Thanks\n\n\n\n\nEnjoy","torrent":{"xt":"urn:btih:9687f1b7b58e4eb6c55e900be0533cd1d82c747f","amp;dn":"The.Divide.2011.Limited.BRRip.XViD.DTRG","amp;tr":["udp%3A%2F%2Ftracker.openbittorrent.com%3A80","udp%3A%2F%2Fopen.demonii.com%3A1337","udp%3A%2F%2Ftracker.coppersurfer.tk%3A6969","udp%3A%2F%2Fexodus.desync.com%3A6969"],"infoHash":"9687f1b7b58e4eb6c55e900be0533cd1d82c747f","infoHashBuffer":{"type":"Buffer","data":[150,135,241,183,181,142,78,182,197,94,144,11,224,83,60,209,216,44,116,127]},"announce":[],"urlList":[]}}